TITLE ""
FILE "P1Q_t_1559-1568.mp3" MP3
  TRACK 01 AUDIO
    TITLE "P1Q_t_1559-1568_01"
    INDEX 01 00:00:00
  TRACK 02 AUDIO
    TITLE "P1Q_t_1559-1568_02"
    INDEX 01 00:00:12
  TRACK 03 AUDIO
    TITLE "P1Q_t_1559-1568_03"
    INDEX 01 00:01:37
  TRACK 04 AUDIO
    TITLE "P1Q_t_1559-1568_04"
    INDEX 01 00:01:61
  TRACK 05 AUDIO
    TITLE "P1Q_t_1559-1568_05"
    INDEX 01 00:02:60
  TRACK 06 AUDIO
    TITLE "P1Q_t_1559-1568_06"
    INDEX 01 00:03:05
  TRACK 07 AUDIO
    TITLE "P1Q_t_1559-1568_07"
    INDEX 01 00:07:36
  TRACK 08 AUDIO
    TITLE "P1Q_t_1559-1568_08"
    INDEX 01 00:08:06
  TRACK 09 AUDIO
    TITLE "P1Q_t_1559-1568_09"
    INDEX 01 00:09:31
  TRACK 10 AUDIO
    TITLE "P1Q_t_1559-1568_10"
    INDEX 01 00:09:52
  TRACK 11 AUDIO
    TITLE "P1Q_t_1559-1568_11"
    INDEX 01 00:10:60
  TRACK 12 AUDIO
    TITLE "P1Q_t_1559-1568_12"
    INDEX 01 00:11:04
  TRACK 13 AUDIO
    TITLE "P1Q_t_1559-1568_13"
    INDEX 01 00:15:55
  TRACK 14 AUDIO
    TITLE "P1Q_t_1559-1568_14"
    INDEX 01 00:16:27
  TRACK 15 AUDIO
    TITLE "P1Q_t_1559-1568_15"
    INDEX 01 00:17:40
  TRACK 16 AUDIO
    TITLE "P1Q_t_1559-1568_16"
    INDEX 01 00:17:60
  TRACK 17 AUDIO
    TITLE "P1Q_t_1559-1568_17"
    INDEX 01 00:21:07
  TRACK 18 AUDIO
    TITLE "P1Q_t_1559-1568_18"
    INDEX 01 00:21:28
  TRACK 19 AUDIO
    TITLE "P1Q_t_1559-1568_19"
    INDEX 01 00:25:36
  TRACK 20 AUDIO
    TITLE "P1Q_t_1559-1568_20"
    INDEX 01 00:26:04
  TRACK 21 AUDIO
    TITLE "P1Q_t_1559-1568_21"
    INDEX 01 00:27:17
  TRACK 22 AUDIO
    TITLE "P1Q_t_1559-1568_22"
    INDEX 01 00:27:39
  TRACK 23 AUDIO
    TITLE "P1Q_t_1559-1568_23"
    INDEX 01 00:30:09
  TRACK 24 AUDIO
    TITLE "P1Q_t_1559-1568_24"
    INDEX 01 00:30:31
  TRACK 25 AUDIO
    TITLE "P1Q_t_1559-1568_25"
    INDEX 01 00:35:65
  TRACK 26 AUDIO
    TITLE "P1Q_t_1559-1568_26"
    INDEX 01 00:36:36
  TRACK 27 AUDIO
    TITLE "P1Q_t_1559-1568_27"
    INDEX 01 00:37:45
  TRACK 28 AUDIO
    TITLE "P1Q_t_1559-1568_28"
    INDEX 01 00:37:66
  TRACK 29 AUDIO
    TITLE "P1Q_t_1559-1568_29"
    INDEX 01 00:40:37
  TRACK 30 AUDIO
    TITLE "P1Q_t_1559-1568_30"
    INDEX 01 00:40:57
  TRACK 31 AUDIO
    TITLE "P1Q_t_1559-1568_31"
    INDEX 01 00:45:52
  TRACK 32 AUDIO
    TITLE "P1Q_t_1559-1568_32"
    INDEX 01 00:46:22
  TRACK 33 AUDIO
    TITLE "P1Q_t_1559-1568_33"
    INDEX 01 00:47:53
  TRACK 34 AUDIO
    TITLE "P1Q_t_1559-1568_34"
    INDEX 01 00:47:73
  TRACK 35 AUDIO
    TITLE "P1Q_t_1559-1568_35"
    INDEX 01 00:50:02
  TRACK 36 AUDIO
    TITLE "P1Q_t_1559-1568_36"
    INDEX 01 00:50:22
  TRACK 37 AUDIO
    TITLE "P1Q_t_1559-1568_37"
    INDEX 01 00:55:56
  TRACK 38 AUDIO
    TITLE "P1Q_t_1559-1568_38"
    INDEX 01 00:56:26
  TRACK 39 AUDIO
    TITLE "P1Q_t_1559-1568_39"
    INDEX 01 00:57:49
  TRACK 40 AUDIO
    TITLE "P1Q_t_1559-1568_40"
    INDEX 01 00:57:71
  TRACK 41 AUDIO
    TITLE "P1Q_t_1559-1568_41"
    INDEX 01 00:59:11
  TRACK 42 AUDIO
    TITLE "P1Q_t_1559-1568_42"
    INDEX 01 00:59:31
  TRACK 43 AUDIO
    TITLE "P1Q_t_1559-1568_43"
    INDEX 01 01:02:64
  TRACK 44 AUDIO
    TITLE "P1Q_t_1559-1568_44"
    INDEX 01 01:03:34
  TRACK 45 AUDIO
    TITLE "P1Q_t_1559-1568_45"
    INDEX 01 01:04:44
  TRACK 46 AUDIO
    TITLE "P1Q_t_1559-1568_46"
    INDEX 01 01:05:18
  TRACK 47 AUDIO
    TITLE "P1Q_t_1559-1568_47"
    INDEX 01 01:07:50
  TRACK 48 AUDIO
    TITLE "P1Q_t_1559-1568_48"
    INDEX 01 01:07:65
  TRACK 49 AUDIO
    TITLE "P1Q_t_1559-1568_49"
    INDEX 01 01:11:52
  TRACK 50 AUDIO
    TITLE "P1Q_t_1559-1568_50"
    INDEX 01 01:12:22
  TRACK 51 AUDIO
    TITLE "P1Q_t_1559-1568_51"
    INDEX 01 01:13:39
  TRACK 52 AUDIO
    TITLE "P1Q_t_1559-1568_52"
    INDEX 01 01:13:62
  TRACK 53 AUDIO
    TITLE "P1Q_t_1559-1568_53"
    INDEX 01 01:15:69
  TRACK 54 AUDIO
    TITLE "P1Q_t_1559-1568_54"
    INDEX 01 01:16:13
  TRACK 55 AUDIO
    TITLE "P1Q_t_1559-1568_55"
    INDEX 01 01:20:01
  TRACK 56 AUDIO
    TITLE "P1Q_t_1559-1568_56"
    INDEX 01 01:20:49
  TRACK 57 AUDIO
    TITLE "P1Q_t_1559-1568_57"
    INDEX 01 01:22:20
  TRACK 58 AUDIO
    TITLE "P1Q_t_1559-1568_58"
    INDEX 01 01:22:40
  TRACK 59 AUDIO
    TITLE "P1Q_t_1559-1568_59"
    INDEX 01 01:24:58
  TRACK 60 AUDIO
    TITLE "P1Q_t_1559-1568_60"
    INDEX 01 01:25:01
  TRACK 61 AUDIO
    TITLE "P1Q_t_1559-1568_61"
    INDEX 01 01:29:36
